<svg width="872" height="120" viewBox="0 0 872 120" fill="none" xmlns="http://www.w3.org/2000/svg">
<g clip-path="url(#clip0_293_2215)">
<path d="M143.63 16.28H158V75.89H195.66V89.1H143.66L143.63 16.28Z" fill="black"/>
<path d="M200.23 63.51C200.23 47.51 211.16 36.67 227.28 36.67C245.9 36.67 256.2 48.94 253.91 67.98H214.28C215.21 74.43 220.83 78.7 229.15 78.7C234.67 78.7 240.15 76.82 243.51 73.81L251.21 81.71C245.8 87.23 237.58 90.45 228.63 90.45C211.26 90.45 200.23 80 200.23 63.51ZM240.91 58.83C240.39 52.17 235.4 48 227.7 48C220.42 48 215.53 52 214.49 58.82L240.91 58.83Z" fill="black"/>
<path d="M261.41 95.65H274.83C274.62 102.83 279.93 107.31 288.77 107.31C296.99 107.31 302.5 103.31 302.5 97.53C302.5 91.75 297.5 88.16 288.98 88.16C271.81 88.16 260.89 78.07 260.89 62.36C260.89 47.28 272.43 36.46 288.66 36.46C293.142 36.3773 297.574 37.4081 301.56 39.46L307.91 31.65L317.91 39.14L310.91 47.36C314.653 51.4445 316.668 56.8212 316.53 62.36C316.53 70.79 312.36 77.55 304.77 81.51C312.26 84.63 316.53 90.35 316.53 97.84C316.53 110.84 305.6 119.27 288.75 119.27C271.39 119.27 260.47 109.7 261.41 95.65ZM288.77 76.1C297.3 76.1 302.92 70.48 302.92 62.36C302.92 54.04 297.3 48.53 288.77 48.53C280.24 48.53 274.62 54 274.62 62.36C274.62 70.48 280.34 76.1 288.77 76.1Z" fill="black"/>
<path d="M324.56 63.4001C324.56 47.5901 334.75 36.5601 349.56 36.5601C356.84 36.5601 363.19 39.1601 367.35 43.8501L368.28 37.7101H380.28V89.1001H368.28L367.35 82.8601C363.08 87.6401 356.84 90.2401 349.56 90.2401C334.75 90.2401 324.56 79.2201 324.56 63.4001ZM352.34 78.1801C360.66 78.1801 366.48 72.0401 366.48 63.4001C366.48 54.7601 360.66 48.6301 352.34 48.6301C344.02 48.6301 338.34 54.7701 338.34 63.4001C338.34 72.0301 344.12 78.1801 352.34 78.1801Z" fill="black"/>
<path d="M390.42 63.4C390.42 47.4 401.55 36.56 418.09 36.56C421.75 36.522 425.382 37.2094 428.775 38.5825C432.168 39.9556 435.256 41.9872 437.86 44.56L429.86 53.2C426.869 50.2495 422.831 48.6029 418.63 48.62C410.1 48.62 404.17 54.62 404.17 63.39C404.17 72.16 410 78.18 418.61 78.18C420.823 78.1981 423.017 77.764 425.056 76.9042C427.095 76.0444 428.938 74.7771 430.47 73.18L438.58 81.92C435.937 84.6055 432.778 86.7275 429.292 88.1575C425.807 89.5875 422.067 90.2959 418.3 90.24C401.34 90.24 390.42 79.74 390.42 63.4Z" fill="black"/>
<path d="M461.16 88.48L441 37.71H455.88L463.47 57.79L468.88 73.49L474.81 57.79L483 37.71H498L465.85 112.09H451L461.16 88.48Z" fill="black"/>
<path d="M509.33 89.1H503.82L516.61 16.27H522.13L509.33 89.1Z" fill="black"/>
<path d="M536.49 37.7H541.49L539.93 46.86C544.77 40.2867 551.46 36.9234 560 36.77C567.073 36.77 572.343 38.77 575.81 42.77C579.277 46.77 580.387 52.32 579.14 59.42L573.94 89.07H568.84L574 59.55C575.04 53.73 574.28 49.2934 571.72 46.24C569.16 43.1867 564.857 41.6934 558.81 41.76C553.697 41.7985 548.779 43.7252 545 47.17C541.06 50.6208 538.432 55.3257 537.56 60.49L532.56 89.1H527.46L536.49 37.7Z" fill="black"/>
<path d="M634.91 43.74L631.27 47C627.87 43.4 622.806 41.5966 616.08 41.59C611.895 41.4716 607.745 42.3887 604 44.26C600.6 46.06 598.9 48.6266 598.9 51.96C598.861 53.2618 599.209 54.5461 599.9 55.65C600.819 56.846 602.093 57.721 603.54 58.15C605.31 58.81 606.54 59.23 607.23 59.4C607.92 59.57 609.48 59.87 611.91 60.28L612.43 60.44C612.568 60.4714 612.708 60.4882 612.85 60.49C615.136 60.91 617.043 61.29 618.57 61.63C620.396 62.0735 622.187 62.6483 623.93 63.35C625.669 63.9742 627.289 64.8907 628.72 66.06C629.922 67.1523 630.833 68.5271 631.37 70.06C631.997 71.9258 632.07 73.9335 631.58 75.84C630.946 79.265 629.074 82.337 626.32 84.47C623.771 86.5634 620.784 88.0569 617.58 88.84C614.388 89.5373 611.127 89.8727 607.86 89.84C597.66 89.84 590.793 86.3366 587.26 79.33L591.26 76.33C594.593 82.09 600.453 84.9666 608.84 84.96C612.727 84.9976 616.583 84.2564 620.18 82.78C621.802 82.1651 623.238 81.1428 624.35 79.8117C625.462 78.4806 626.213 76.8854 626.53 75.18C626.903 73.7388 626.755 72.2119 626.11 70.87C625.344 69.5063 624.133 68.4471 622.68 67.87C621.107 67.1441 619.47 66.5682 617.79 66.15C616.19 65.77 614.15 65.37 611.65 64.96C608.693 64.5323 605.772 63.8872 602.91 63.03C600.576 62.274 598.454 60.9751 596.72 59.24C595.817 58.3637 595.105 57.3096 594.63 56.1443C594.155 54.9791 593.927 53.7279 593.96 52.47C593.893 50.0713 594.496 47.7015 595.701 45.6262C596.905 43.5509 598.664 41.852 600.78 40.72C605.693 37.8998 611.299 36.514 616.96 36.72C624.826 36.82 630.81 39.16 634.91 43.74Z" fill="black"/>
<path d="M647 89.1H641.91L650.91 37.5H656L647 89.1ZM653.51 23.61C654.15 24.1907 654.987 24.5055 655.85 24.49C657.131 24.5047 658.372 24.0412 659.33 23.19C659.828 22.7616 660.223 22.226 660.484 21.6233C660.746 21.0206 660.868 20.3664 660.84 19.71C660.863 19.2533 660.786 18.7971 660.613 18.3737C660.44 17.9504 660.176 17.5702 659.84 17.26C659.169 16.6668 658.296 16.3521 657.4 16.38C656.151 16.3758 654.945 16.8396 654.02 17.68C653.523 18.1089 653.128 18.6446 652.867 19.2472C652.605 19.8498 652.483 20.5037 652.51 21.16C652.483 21.6144 652.556 22.0692 652.724 22.4924C652.891 22.9157 653.15 23.2971 653.48 23.61H653.51Z" fill="black"/>
<path d="M716.79 37.7H721.47L712.21 90.4499C710.75 98.7766 707.474 105.037 702.38 109.23C697.287 113.423 690.854 115.523 683.08 115.53C675.86 115.53 670.364 113.863 666.59 110.53C662.817 107.197 661.287 102.76 662 97.22H666.57C666.157 101.887 667.46 105.32 670.48 107.52C673.5 109.72 677.817 110.827 683.43 110.84C688.976 110.949 694.41 109.274 698.93 106.06C703.37 102.873 706.18 97.7066 707.36 90.5599L709.5 78.9C703.68 86.2333 695.914 89.9 686.2 89.9C679.194 89.9 673.8 87.9 670.02 83.9C666.24 79.9 664.35 74.4899 664.35 67.6699C664.256 63.5703 665.043 59.4982 666.658 55.7288C668.273 51.9594 670.678 48.5804 673.71 45.8199C679.562 40.1479 687.411 37.0081 695.56 37.08C699.678 37.009 703.74 38.0451 707.32 40.08C710.726 42.0147 713.313 45.1206 714.6 48.8199L716.79 37.7ZM694.62 41.9999C688.039 41.943 681.703 44.4959 677 49.0999C674.549 51.3679 672.609 54.1318 671.309 57.2078C670.009 60.2838 669.378 63.6015 669.46 66.94C669.46 72.56 670.934 77 673.88 80.26C676.827 83.52 681.247 85.15 687.14 85.15C691.04 85.2657 694.909 84.4249 698.41 82.701C701.91 80.977 704.935 78.4223 707.22 75.26C711.244 70.2461 713.181 63.875 712.63 57.47C712.084 50.95 709.137 46.4066 703.79 43.8399C700.909 42.5506 697.776 41.922 694.62 41.9999Z" fill="black"/>
<path d="M741.86 16.27H746.75L741.34 47.27C746.26 40.5367 753.023 37.1034 761.63 36.97C768.63 36.97 773.63 39.0167 776.63 43.11C779.63 47.2034 780.497 52.7167 779.23 59.65L774 89.1H769L774.2 59.66C776.287 47.7334 771.813 41.7667 760.78 41.76C755.548 41.7173 750.501 43.6946 746.69 47.28C742.696 50.832 740.033 55.64 739.14 60.91L734.14 89.1H729.04L741.86 16.27Z" fill="black"/>
<path d="M805.64 22.7199L810.73 22.2L807.92 37.7H824.26L823.43 42.18H807.09L801.68 73.29C801.013 77.2366 801.137 80.2 802.05 82.18C802.963 84.16 805.297 85.16 809.05 85.18C811.903 85.057 814.701 84.349 817.27 83.0999L818.27 87.2599C815.127 88.8257 811.689 89.7116 808.18 89.86C802.97 89.86 799.51 88.4399 797.77 85.5899C796.03 82.7399 795.66 78.66 796.63 73.32L802.04 42.2099H791.17L792 37.7H802.92L805.64 22.7199Z" fill="black"/>
<path d="M871.59 43.74L868 47C864.6 43.4 859.536 41.5967 852.81 41.59C848.628 41.4865 844.485 42.4174 840.75 44.3C837.35 46.1 835.65 48.6667 835.65 52C835.611 53.3019 835.959 54.5861 836.65 55.69C837.567 56.8881 838.842 57.7635 840.29 58.19C842.06 58.85 843.29 59.27 843.98 59.44C844.67 59.61 846.23 59.91 848.66 60.32L849.18 60.48C849.318 60.5115 849.458 60.5283 849.6 60.53C851.89 60.95 853.79 61.33 855.32 61.67C857.145 62.1135 858.937 62.6883 860.68 63.39C862.417 64.011 864.035 64.9278 865.46 66.1C866.668 67.189 867.583 68.5646 868.12 70.1C868.747 71.9659 868.82 73.9736 868.33 75.88C867.68 79.3191 865.782 82.3965 863 84.52C860.451 86.6135 857.464 88.107 854.26 88.89C851.064 89.5878 847.8 89.9233 844.53 89.89C834.343 89.89 827.476 86.3867 823.93 79.38L827.93 76.38C831.263 82.14 837.123 85.0167 845.51 85.01C849.397 85.0476 853.253 84.3064 856.85 82.83C858.471 82.2135 859.906 81.1907 861.018 79.8599C862.13 78.529 862.881 76.9348 863.2 75.23C863.568 73.7885 863.42 72.2633 862.78 70.92C862.014 69.5563 860.803 68.4972 859.35 67.92C857.777 67.1957 856.14 66.6199 854.46 66.2C852.86 65.82 850.82 65.42 848.32 65.01C845.363 64.5823 842.442 63.9373 839.58 63.08C837.246 62.3241 835.124 61.0252 833.39 59.29C832.487 58.4137 831.775 57.3597 831.3 56.1944C830.825 55.0291 830.597 53.778 830.63 52.52C830.561 50.1209 831.163 47.7502 832.368 45.6745C833.572 43.5987 835.332 41.9002 837.45 40.77C842.363 37.9499 847.968 36.5641 853.63 36.77C861.51 36.8367 867.496 39.16 871.59 43.74Z" fill="black"/>
<path d="M82.15 2.51027e-06H19.94C17.3211 -0.00131188 14.7276 0.513554 12.3077 1.51517C9.88791 2.51678 7.68922 3.9855 5.83736 5.83736C3.9855 7.68922 2.51678 9.88791 1.51517 12.3077C0.513554 14.7276 -0.00131188 17.3211 2.51027e-06 19.94V82.15C-0.00131188 84.7689 0.513554 87.3624 1.51517 89.7823C2.51678 92.2021 3.9855 94.4008 5.83736 96.2526C7.68922 98.1045 9.88791 99.5732 12.3077 100.575C14.7276 101.576 17.3211 102.091 19.94 102.09H82.15C84.7689 102.091 87.3624 101.576 89.7823 100.575C92.2021 99.5732 94.4008 98.1045 96.2526 96.2526C98.1045 94.4008 99.5732 92.2021 100.575 89.7823C101.576 87.3624 102.091 84.7689 102.09 82.15V19.94C102.091 17.3211 101.576 14.7276 100.575 12.3077C99.5732 9.88791 98.1045 7.68922 96.2526 5.83736C94.4008 3.9855 92.2021 2.51678 89.7823 1.51517C87.3624 0.513554 84.7689 -0.00131188 82.15 2.51027e-06ZM90.22 43.42L80.6 67.2C79.3914 70.2188 77.5848 72.962 75.2889 75.2648C72.993 77.5676 70.2552 79.3823 67.24 80.6L43.42 90.27C40.4841 91.4338 37.3581 92.0441 34.2 92.07C18 92.07 5 75.42 11.81 58.67L21.48 34.84C22.7004 31.827 24.511 29.0884 26.8054 26.7854C29.0998 24.4825 31.8315 22.6616 34.84 21.43L58.67 11.81C61.6001 10.6254 64.7295 10.011 67.89 10C84 10 97 26.67 90.22 43.42Z" fill="#0544FF"/>
</g>
<defs>
<clipPath id="clip0_293_2215">
<rect width="871.59" height="119.27" fill="white"/>
</clipPath>
</defs>
</svg>
