<svg width="248" height="32" viewBox="0 0 248 32" fill="none" xmlns="http://www.w3.org/2000/svg">
<path d="M136.025 12.8914H133.487V11.7485H135.133C135.819 11.7485 136.047 11.3371 136.07 10.2628L136.093 8.2514H137.442L137.419 10.4914C137.419 11.3371 136.916 11.4514 136.162 11.5657L136.025 11.5885V11.7485H140.87V12.8914H137.282V20.5714C137.282 21.76 138.265 22.4457 139.316 22.4457C139.865 22.4457 140.367 22.3314 140.733 22.08L141.213 23.1543C140.687 23.4057 140.07 23.5657 139.339 23.5657C137.167 23.5657 136.025 22.3085 136.025 20.7314V12.8914Z" fill="#6714CD"/>
<path d="M127.422 11.52C130.416 11.5429 131.65 13.6914 131.65 16.3657V23.3371H130.416V16.5943C130.416 14.1943 129.273 12.8457 127.308 12.7771C124.519 12.6857 122.69 14.6514 122.69 17.5771V23.3371H121.456V8H122.69V15.4514H122.85L122.896 14.88C123.056 12.9143 124.839 11.4971 127.422 11.52Z" fill="#6714CD"/>
<path d="M108.405 15.4972C108.405 12.7315 110.85 11.5201 113.319 11.5201C114.942 11.5201 116.176 11.8401 117.113 12.7772L117.25 12.6858L117.113 12.5029C116.679 11.9315 116.839 10.6972 117.936 9.94293C118.073 9.8515 118.188 9.76007 118.302 9.71436L119.079 10.8115C118.85 10.8572 118.599 10.9944 118.325 11.1772C117.525 11.7258 117.342 12.7315 117.479 13.2344C117.845 13.8058 118.073 14.5144 118.073 15.4286C118.073 18.1715 115.673 19.4058 113.25 19.4058C112.816 19.4058 112.176 19.3601 111.788 19.2686C111.125 19.3144 110.462 19.5658 110.462 20.1829C110.462 21.0972 111.65 21.3258 113.73 21.3258C116.999 21.3258 119.17 22.2629 119.17 24.5486C119.17 26.9258 116.77 27.8401 113.662 27.8401C110.302 27.8401 108.13 26.9258 108.13 24.6172C108.13 23.2915 109.09 22.1715 111.536 21.8972V21.7372L110.942 21.7601C109.959 21.8058 109.273 21.2572 109.205 20.3429C109.159 19.7029 109.548 19.0401 110.439 18.8572C110.668 18.8115 110.896 18.8115 111.125 18.8115V18.6515C110.919 18.6286 110.69 18.6058 110.485 18.5372C109.113 18.0801 108.405 16.7772 108.405 15.4972ZM109.365 24.5944C109.365 26.2401 111.125 26.7201 113.662 26.7201C116.29 26.7201 117.936 26.2172 117.936 24.5715C117.936 22.8572 116.222 22.4458 113.708 22.4458C111.125 22.4458 109.365 22.8344 109.365 24.5944ZM109.639 15.4744C109.639 17.4858 111.399 18.2858 113.25 18.2858C115.193 18.2858 116.839 17.4629 116.839 15.4515C116.839 13.4172 115.125 12.6401 113.296 12.6401C111.399 12.6401 109.639 13.3944 109.639 15.4744Z" fill="#6714CD"/>
<path d="M104.604 11.7485H105.838V23.3371H104.604V11.7485ZM104.604 9.82855V8.2514H105.838V9.82855H104.604Z" fill="#6714CD"/>
<path d="M100.956 15.4285C100.933 13.7828 99.607 12.6856 97.4355 12.6628C95.607 12.6399 94.2584 13.3485 94.2584 14.7656C94.2584 15.9542 95.0127 16.457 97.0012 16.7999L98.6927 17.097C100.201 17.3713 102.327 17.8513 102.327 20.297C102.327 22.4913 100.453 23.5656 97.847 23.5656C94.8298 23.5656 92.887 22.057 92.7955 19.657H94.0527C94.0755 21.3028 95.6755 22.3999 97.847 22.4228C99.7441 22.4456 101.093 21.737 101.093 20.3199C101.093 19.1313 100.338 18.6285 98.3498 18.2628L96.5212 17.9199C94.5555 17.5542 93.0241 17.0056 93.0241 14.7885C93.0241 12.5942 94.8984 11.5199 97.4355 11.5199C100.453 11.5199 102.121 13.0285 102.213 15.4285H100.956Z" fill="#6714CD"/>
<path d="M80.3179 11.7487H81.5522V15.4515H81.7122L81.7579 14.8801C81.9179 12.9144 83.6322 11.4973 86.2836 11.5201C89.2779 11.543 90.5122 13.463 90.5122 16.1373V23.3372H89.2779V16.3658C89.2779 13.9658 88.135 12.8458 86.1693 12.7773C83.3807 12.6858 81.5522 14.6515 81.5522 17.5773V23.3372H80.3179V11.7487Z" fill="#6714CD"/>
<path d="M76.791 11.7485H78.0253V23.3371H76.791V11.7485ZM76.791 9.82855V8.2514H78.0253V9.82855H76.791Z" fill="#6714CD"/>
<path d="M64.698 23.3599C65.7037 24.4113 67.5095 24.6628 67.9437 23.4513L68.5838 21.7142H67.4866C66.8009 21.7142 66.2066 21.2799 65.9552 20.6628L62.3438 11.7485H65.0638L68.3552 20.7542H68.7437L72.0123 11.7485H74.7323L70.1609 24.2056C69.018 27.2913 65.338 26.857 63.4637 25.3485L64.698 23.3599Z" fill="#181828"/>
<path d="M61.656 18.88C61.6331 21.7371 59.0731 23.6571 56.0788 23.5886C52.7417 23.4971 50.0903 21.6228 50.0446 17.6228C50.0446 14.24 52.1474 11.4971 56.1017 11.4971C59.0274 11.4971 61.6103 13.1886 61.656 16.1371H59.3017C59.1646 14.5828 57.8617 13.6914 55.9874 13.6914C54.0217 13.6914 52.4903 15.0857 52.4674 17.6C52.4903 20.0914 54.0446 21.3486 56.0103 21.3943C57.8617 21.4628 59.1874 20.4114 59.3017 18.88H61.656Z" fill="#181828"/>
<path d="M39.8772 20.1142C39.9458 21.0056 40.7915 21.4399 42.0486 21.3942C43.7629 21.3256 45.5458 20.5485 45.5458 19.017V17.097H45.3629L45.2943 17.4628C45.2257 17.9656 44.8143 18.217 44.1286 18.3085C43.3057 18.4228 42.4372 18.4913 41.7743 18.5599C40.38 18.7199 39.8086 19.2913 39.8772 20.1142ZM37.66 16.0685C37.7058 13.097 39.8086 11.5199 42.7343 11.5199C46.5515 11.5199 47.9457 13.3485 47.9457 16.0456V20.3199C47.9457 20.7999 48.1058 20.9599 48.4943 20.9599H48.9057V23.3599H47.6258C46.2772 23.3599 45.6829 22.3542 45.6829 21.1199V20.7085H45.4772L45.3858 21.2799C45.2029 22.6285 43.6258 23.5656 41.5686 23.5656C39.1686 23.5656 37.5458 22.4456 37.5 20.1828C37.4315 17.5085 39.7172 16.7085 42.5058 16.5942C44.4943 16.5256 45.5458 16.4799 45.5458 15.7713C45.5458 14.5599 44.7458 13.6685 42.8486 13.6685C41.2258 13.6685 40.1286 14.4228 40.06 16.0685H37.66Z" fill="#181828"/>
<path d="M24.247 15.68C24.247 12.7086 26.8527 11.52 29.3899 11.52C30.9213 11.52 32.3385 12 33.2527 12.7543L33.4356 12.64L33.2299 12.4343C32.5213 11.7258 32.6356 10.6515 33.5042 10.0572C33.7327 9.89718 33.9385 9.78289 34.2127 9.64575L35.6527 11.7943C34.967 11.9315 34.6242 12.0686 34.3042 12.2972C33.847 12.6172 33.6413 13.1429 33.7785 13.4858C34.1442 14.0572 34.3727 14.8115 34.3727 15.7258C34.3727 18.6515 31.7899 19.8858 29.3213 19.9543C28.9327 19.9772 28.3385 19.9543 27.9499 19.8858C27.6527 19.9315 27.287 20.0915 27.287 20.48C27.287 21.0743 27.8813 21.28 29.7556 21.28C32.9327 21.28 35.3785 21.92 35.3785 24.5029C35.3785 27.1772 32.7499 28 29.687 28C26.4185 28 23.9956 27.1772 23.9956 24.8686C23.9956 23.0172 25.6185 22.2858 27.4242 22.1943L27.447 21.92H27.0356C25.7556 21.8515 25.0013 21.5543 24.9785 20.5943C24.9556 19.84 25.6642 19.4515 26.6242 19.3372C26.8756 19.3143 27.2185 19.2915 27.447 19.2915V19.0858C27.1499 19.04 26.9899 19.0172 26.6013 18.9258C25.047 18.5143 24.247 17.0743 24.247 15.68ZM26.4413 24.3886C26.4413 25.3943 27.4699 25.8286 29.687 25.8286C31.9956 25.8286 32.9327 25.3943 32.9327 24.3657C32.9327 23.3372 31.9499 22.9486 29.7327 22.9486C27.447 22.9486 26.4413 23.3143 26.4413 24.3886ZM26.6927 15.7715C26.6927 17.1658 27.7899 17.8972 29.3213 17.8972C30.9442 17.8972 31.927 17.1658 31.927 15.7486C31.927 14.3086 30.8756 13.5772 29.367 13.5772C27.767 13.5772 26.6927 14.2858 26.6927 15.7715Z" fill="#181828"/>
<path d="M21.9372 19.2458C21.7086 21.8972 19.2629 23.6572 16.5658 23.5658C13.3886 23.4972 10.7601 21.5772 10.7144 17.5772C10.7144 14.1486 12.7944 11.5429 16.4972 11.5429C20.0629 11.5429 21.9601 13.6229 22.1429 16.8001C22.1886 17.3029 22.1658 17.7601 22.0972 18.3086H13.1601C13.4572 20.4343 14.8515 21.4401 16.4972 21.4629C18.0515 21.5543 19.2858 20.6858 19.5601 19.2458H21.9372ZM13.1829 16.5486H19.7658V16.4572C19.7658 14.7201 18.3944 13.6458 16.4515 13.6458C14.5544 13.6458 13.4344 14.7429 13.1829 16.5486Z" fill="#181828"/>
<path d="M0 23.3371V8.2514H2.46857V20.9828H9.80571V23.3371H0Z" fill="#181828"/>
<rect width="8" height="8" rx="2" transform="matrix(-1 0 0 1 153 8)" fill="#6714CD"/>
</svg>
