<svg width="159" height="32" viewBox="0 0 159 32" fill="none" xmlns="http://www.w3.org/2000/svg">
<path d="M136.025 12.891H133.488V11.7481H135.134C135.82 11.7481 136.048 11.3367 136.071 10.2624L136.094 8.25098H137.443L137.42 10.491C137.42 11.3367 136.917 11.451 136.163 11.5653L136.025 11.5881V11.7481H140.871V12.891H137.283V20.571C137.283 21.7595 138.265 22.4453 139.317 22.4453C139.865 22.4453 140.368 22.331 140.734 22.0795L141.214 23.1538C140.688 23.4053 140.071 23.5653 139.34 23.5653C137.168 23.5653 136.025 22.3081 136.025 20.731V12.891Z" fill="#6714CD"/>
<path d="M127.423 11.52C130.417 11.5429 131.651 13.6914 131.651 16.3657V23.3371H130.417V16.5943C130.417 14.1943 129.274 12.8457 127.308 12.7771C124.52 12.6857 122.691 14.6514 122.691 17.5771V23.3371H121.457V8H122.691V15.4514H122.851L122.897 14.88C123.057 12.9143 124.84 11.4971 127.423 11.52Z" fill="#6714CD"/>
<path d="M108.403 15.4967C108.403 12.731 110.849 11.5196 113.317 11.5196C114.94 11.5196 116.175 11.8396 117.112 12.7767L117.249 12.6853L117.112 12.5024C116.677 11.931 116.837 10.6967 117.935 9.94244C118.072 9.85101 118.186 9.75958 118.3 9.71387L119.077 10.811C118.849 10.8567 118.597 10.9939 118.323 11.1767C117.523 11.7253 117.34 12.731 117.477 13.2339C117.843 13.8053 118.072 14.5139 118.072 15.4282C118.072 18.171 115.672 19.4053 113.249 19.4053C112.815 19.4053 112.175 19.3596 111.786 19.2681C111.123 19.3139 110.46 19.5653 110.46 20.1824C110.46 21.0967 111.649 21.3253 113.729 21.3253C116.997 21.3253 119.169 22.2624 119.169 24.5481C119.169 26.9253 116.769 27.8396 113.66 27.8396C110.3 27.8396 108.129 26.9253 108.129 24.6167C108.129 23.291 109.089 22.171 111.535 21.8967V21.7367L110.94 21.7596C109.957 21.8053 109.272 21.2567 109.203 20.3424C109.157 19.7024 109.546 19.0396 110.437 18.8567C110.666 18.811 110.895 18.811 111.123 18.811V18.651C110.917 18.6282 110.689 18.6053 110.483 18.5367C109.112 18.0796 108.403 16.7767 108.403 15.4967ZM109.363 24.5939C109.363 26.2396 111.123 26.7196 113.66 26.7196C116.289 26.7196 117.935 26.2167 117.935 24.571C117.935 22.8567 116.22 22.4453 113.706 22.4453C111.123 22.4453 109.363 22.8339 109.363 24.5939ZM109.637 15.4739C109.637 17.4853 111.397 18.2853 113.249 18.2853C115.192 18.2853 116.837 17.4624 116.837 15.451C116.837 13.4167 115.123 12.6396 113.295 12.6396C111.397 12.6396 109.637 13.3939 109.637 15.4739Z" fill="#6714CD"/>
<path d="M104.605 11.7481H105.84V23.3367H104.605V11.7481ZM104.605 9.82812V8.25098H105.84V9.82812H104.605Z" fill="#6714CD"/>
<path d="M100.957 15.4281C100.934 13.7824 99.6083 12.6852 97.4369 12.6624C95.6083 12.6395 94.2597 13.3481 94.2597 14.7652C94.2597 15.9538 95.014 16.4567 97.0026 16.7995L98.694 17.0967C100.203 17.371 102.328 17.851 102.328 20.2967C102.328 22.491 100.454 23.5652 97.8483 23.5652C94.8312 23.5652 92.8883 22.0567 92.7969 19.6567H94.054C94.0769 21.3024 95.6769 22.3995 97.8483 22.4224C99.7454 22.4452 101.094 21.7367 101.094 20.3195C101.094 19.131 100.34 18.6281 98.3512 18.2624L96.5226 17.9195C94.5569 17.5538 93.0254 17.0052 93.0254 14.7881C93.0254 12.5938 94.8997 11.5195 97.4369 11.5195C100.454 11.5195 102.123 13.0281 102.214 15.4281H100.957Z" fill="#6714CD"/>
<path d="M80.3164 11.7484H81.5507V15.4512H81.7107L81.7564 14.8798C81.9164 12.9141 83.6307 11.4969 86.2821 11.5198C89.2764 11.5427 90.5107 13.4627 90.5107 16.1369V23.3369H89.2764V16.3655C89.2764 13.9655 88.1335 12.8455 86.1678 12.7769C83.3793 12.6855 81.5507 14.6512 81.5507 17.5769V23.3369H80.3164V11.7484Z" fill="#6714CD"/>
<path d="M76.793 11.7481H78.0273V23.3367H76.793V11.7481ZM76.793 9.82812V8.25098H78.0273V9.82812H76.793Z" fill="#6714CD"/>
<path d="M64.698 23.3595C65.7037 24.4109 67.5095 24.6623 67.9437 23.4509L68.5838 21.7138H67.4866C66.8009 21.7138 66.2066 21.2795 65.9552 20.6623L62.3438 11.748H65.0637L68.3552 20.7538H68.7437L72.0123 11.748H74.7323L70.1609 24.2052C69.018 27.2909 65.338 26.8566 63.4637 25.348L64.698 23.3595Z" fill="#181828"/>
<path d="M61.6544 18.8799C61.6315 21.7371 59.0715 23.6571 56.0773 23.5885C52.7401 23.4971 50.0887 21.6228 50.043 17.6228C50.043 14.2399 52.1458 11.4971 56.1001 11.4971C59.0258 11.4971 61.6087 13.1885 61.6544 16.1371H59.3001C59.163 14.5828 57.8601 13.6914 55.9858 13.6914C54.0201 13.6914 52.4887 15.0856 52.4658 17.5999C52.4887 20.0914 54.043 21.3485 56.0087 21.3942C57.8601 21.4628 59.1858 20.4114 59.3001 18.8799H61.6544Z" fill="#181828"/>
<path d="M39.8786 20.1138C39.9472 21.0052 40.7929 21.4395 42.0501 21.3938C43.7644 21.3252 45.5472 20.5481 45.5472 19.0167V17.0967H45.3644L45.2958 17.4624C45.2272 17.9652 44.8158 18.2167 44.1301 18.3081C43.3072 18.4224 42.4386 18.491 41.7758 18.5595C40.3815 18.7195 39.8101 19.291 39.8786 20.1138ZM37.6615 16.0681C37.7072 13.0967 39.8101 11.5195 42.7358 11.5195C46.5529 11.5195 47.9472 13.3481 47.9472 16.0452V20.3195C47.9472 20.7995 48.1072 20.9595 48.4958 20.9595H48.9072V23.3595H47.6272C46.2786 23.3595 45.6844 22.3538 45.6844 21.1195V20.7081H45.4786L45.3872 21.2795C45.2044 22.6281 43.6272 23.5652 41.5701 23.5652C39.1701 23.5652 37.5472 22.4452 37.5015 20.1824C37.4329 17.5081 39.7186 16.7081 42.5072 16.5938C44.4958 16.5252 45.5472 16.4795 45.5472 15.771C45.5472 14.5595 44.7472 13.6681 42.8501 13.6681C41.2272 13.6681 40.1301 14.4224 40.0615 16.0681H37.6615Z" fill="#181828"/>
<path d="M24.2475 15.6798C24.2475 12.7084 26.8532 11.5198 29.3904 11.5198C30.9218 11.5198 32.3389 11.9998 33.2532 12.7541L33.4361 12.6398L33.2304 12.4341C32.5218 11.7255 32.6361 10.6512 33.5047 10.0569C33.7332 9.89694 33.9389 9.78265 34.2132 9.64551L35.6532 11.7941C34.9675 11.9312 34.6247 12.0684 34.3047 12.2969C33.8475 12.6169 33.6418 13.1427 33.7789 13.4855C34.1447 14.0569 34.3732 14.8112 34.3732 15.7255C34.3732 18.6512 31.7904 19.8855 29.3218 19.9541C28.9332 19.9769 28.3389 19.9541 27.9504 19.8855C27.6532 19.9312 27.2875 20.0912 27.2875 20.4798C27.2875 21.0741 27.8818 21.2798 29.7561 21.2798C32.9332 21.2798 35.3789 21.9198 35.3789 24.5026C35.3789 27.1769 32.7504 27.9998 29.6875 27.9998C26.419 27.9998 23.9961 27.1769 23.9961 24.8684C23.9961 23.0169 25.619 22.2855 27.4247 22.1941L27.4475 21.9198H27.0361C25.7561 21.8512 25.0018 21.5541 24.979 20.5941C24.9561 19.8398 25.6647 19.4512 26.6247 19.3369C26.8761 19.3141 27.2189 19.2912 27.4475 19.2912V19.0855C27.1504 19.0398 26.9904 19.0169 26.6018 18.9255C25.0475 18.5141 24.2475 17.0741 24.2475 15.6798ZM26.4418 24.3884C26.4418 25.3941 27.4704 25.8284 29.6875 25.8284C31.9961 25.8284 32.9332 25.3941 32.9332 24.3655C32.9332 23.3369 31.9504 22.9484 29.7332 22.9484C27.4475 22.9484 26.4418 23.3141 26.4418 24.3884ZM26.6932 15.7712C26.6932 17.1655 27.7904 17.8969 29.3218 17.8969C30.9447 17.8969 31.9275 17.1655 31.9275 15.7484C31.9275 14.3084 30.8761 13.5769 29.3675 13.5769C27.7675 13.5769 26.6932 14.2855 26.6932 15.7712Z" fill="#181828"/>
<path d="M21.9377 19.2458C21.7091 21.8973 19.2634 23.6573 16.5663 23.5658C13.3891 23.4973 10.7606 21.5773 10.7148 17.5773C10.7148 14.1487 12.7948 11.543 16.4977 11.543C20.0634 11.543 21.9606 13.623 22.1434 16.8001C22.1891 17.303 22.1663 17.7601 22.0977 18.3087H13.1606C13.4577 20.4344 14.852 21.4401 16.4977 21.463C18.052 21.5544 19.2863 20.6858 19.5606 19.2458H21.9377ZM13.1834 16.5487H19.7663V16.4573C19.7663 14.7201 18.3948 13.6458 16.452 13.6458C14.5548 13.6458 13.4348 14.743 13.1834 16.5487Z" fill="#181828"/>
<path d="M0 23.3367V8.25098H2.46857V20.9824H9.80571V23.3367H0Z" fill="#181828"/>
<rect width="8" height="8" rx="2" transform="matrix(-1 0 0 1 153 8)" fill="#6714CD"/>
</svg>
