<svg width="159" height="32" viewBox="0 0 159 32" fill="none" xmlns="http://www.w3.org/2000/svg">
<path d="M136.024 12.8915H133.487V11.7486H135.133C135.819 11.7486 136.047 11.3372 136.07 10.2629L136.093 8.25146H137.442L137.419 10.4915C137.419 11.3372 136.916 11.4515 136.162 11.5657L136.024 11.5886V11.7486H140.87V12.8915H137.282V20.5715C137.282 21.76 138.264 22.4457 139.316 22.4457C139.864 22.4457 140.367 22.3315 140.733 22.08L141.213 23.1543C140.687 23.4057 140.07 23.5657 139.339 23.5657C137.167 23.5657 136.024 22.3086 136.024 20.7315V12.8915Z" fill="#923EFA"/>
<path d="M127.422 11.52C130.416 11.5429 131.65 13.6914 131.65 16.3657V23.3371H130.416V16.5943C130.416 14.1943 129.273 12.8457 127.307 12.7771C124.519 12.6857 122.69 14.6514 122.69 17.5771V23.3371H121.456V8H122.69V15.4514H122.85L122.896 14.88C123.056 12.9143 124.839 11.4971 127.422 11.52Z" fill="#923EFA"/>
<path d="M108.404 15.4972C108.404 12.7315 110.85 11.5201 113.318 11.5201C114.941 11.5201 116.176 11.8401 117.113 12.7772L117.25 12.6858L117.113 12.5029C116.678 11.9315 116.838 10.6972 117.936 9.94293C118.073 9.8515 118.187 9.76007 118.301 9.71436L119.078 10.8115C118.85 10.8572 118.598 10.9944 118.324 11.1772C117.524 11.7258 117.341 12.7315 117.478 13.2344C117.844 13.8058 118.073 14.5144 118.073 15.4286C118.073 18.1715 115.673 19.4058 113.25 19.4058C112.816 19.4058 112.176 19.3601 111.787 19.2686C111.124 19.3144 110.461 19.5658 110.461 20.1829C110.461 21.0972 111.65 21.3258 113.73 21.3258C116.998 21.3258 119.17 22.2629 119.17 24.5486C119.17 26.9258 116.77 27.8401 113.661 27.8401C110.301 27.8401 108.13 26.9258 108.13 24.6172C108.13 23.2915 109.09 22.1715 111.536 21.8972V21.7372L110.941 21.7601C109.958 21.8058 109.273 21.2572 109.204 20.3429C109.158 19.7029 109.547 19.0401 110.438 18.8572C110.667 18.8115 110.896 18.8115 111.124 18.8115V18.6515C110.918 18.6286 110.69 18.6058 110.484 18.5372C109.113 18.0801 108.404 16.7772 108.404 15.4972ZM109.364 24.5944C109.364 26.2401 111.124 26.7201 113.661 26.7201C116.29 26.7201 117.936 26.2172 117.936 24.5715C117.936 22.8572 116.221 22.4458 113.707 22.4458C111.124 22.4458 109.364 22.8344 109.364 24.5944ZM109.638 15.4744C109.638 17.4858 111.398 18.2858 113.25 18.2858C115.193 18.2858 116.838 17.4629 116.838 15.4515C116.838 13.4172 115.124 12.6401 113.296 12.6401C111.398 12.6401 109.638 13.3944 109.638 15.4744Z" fill="#923EFA"/>
<path d="M104.604 11.7486H105.838V23.3372H104.604V11.7486ZM104.604 9.82861V8.25146H105.838V9.82861H104.604Z" fill="#923EFA"/>
<path d="M100.956 15.4286C100.933 13.7829 99.6073 12.6857 97.4359 12.6629C95.6073 12.64 94.2588 13.3486 94.2588 14.7657C94.2588 15.9543 95.013 16.4572 97.0016 16.8L98.693 17.0972C100.202 17.3714 102.327 17.8514 102.327 20.2972C102.327 22.4914 100.453 23.5657 97.8473 23.5657C94.8302 23.5657 92.8873 22.0572 92.7959 19.6572H94.053C94.0759 21.3029 95.6759 22.4 97.8473 22.4229C99.7445 22.4457 101.093 21.7372 101.093 20.32C101.093 19.1314 100.339 18.6286 98.3502 18.2629L96.5216 17.92C94.5559 17.5543 93.0245 17.0057 93.0245 14.7886C93.0245 12.5943 94.8988 11.52 97.4359 11.52C100.453 11.52 102.122 13.0286 102.213 15.4286H100.956Z" fill="#923EFA"/>
<path d="M80.3174 11.7489H81.5517V15.4517H81.7117L81.7574 14.8803C81.9174 12.9146 83.6317 11.4974 86.2831 11.5203C89.2774 11.5431 90.5117 13.4631 90.5117 16.1374V23.3374H89.2774V16.366C89.2774 13.966 88.1345 12.846 86.1688 12.7774C83.3802 12.686 81.5517 14.6517 81.5517 17.5774V23.3374H80.3174V11.7489Z" fill="#923EFA"/>
<path d="M76.791 11.7486H78.0253V23.3372H76.791V11.7486ZM76.791 9.82861V8.25146H78.0253V9.82861H76.791Z" fill="#923EFA"/>
<path d="M64.698 23.36C65.7037 24.4114 67.5095 24.6628 67.9437 23.4514L68.5838 21.7142H67.4866C66.8009 21.7142 66.2066 21.28 65.9552 20.6628L62.3438 11.7485H65.0637L68.3552 20.7542H68.7437L72.0123 11.7485H74.7323L70.1609 24.2057C69.018 27.2914 65.338 26.8571 63.4637 25.3485L64.698 23.36Z" fill="#C6C6C6"/>
<path d="M61.6563 18.8799C61.6335 21.7371 59.0735 23.6571 56.0792 23.5885C52.7421 23.4971 50.0906 21.6228 50.0449 17.6228C50.0449 14.2399 52.1478 11.4971 56.1021 11.4971C59.0278 11.4971 61.6106 13.1885 61.6563 16.1371H59.3021C59.1649 14.5828 57.8621 13.6914 55.9878 13.6914C54.0221 13.6914 52.4906 15.0856 52.4678 17.5999C52.4906 20.0914 54.0449 21.3485 56.0106 21.3942C57.8621 21.4628 59.1878 20.4114 59.3021 18.8799H61.6563Z" fill="#C6C6C6"/>
<path d="M39.8767 20.1143C39.9453 21.0057 40.791 21.44 42.0481 21.3943C43.7624 21.3257 45.5453 20.5486 45.5453 19.0172V17.0972H45.3624L45.2938 17.4629C45.2253 17.9657 44.8138 18.2172 44.1281 18.3086C43.3053 18.4229 42.4367 18.4914 41.7738 18.56C40.3796 18.72 39.8081 19.2914 39.8767 20.1143ZM37.6595 16.0686C37.7053 13.0972 39.8081 11.52 42.7338 11.52C46.551 11.52 47.9453 13.3486 47.9453 16.0457V20.32C47.9453 20.8 48.1053 20.96 48.4938 20.96H48.9053V23.36H47.6253C46.2767 23.36 45.6824 22.3543 45.6824 21.12V20.7086H45.4767L45.3853 21.28C45.2024 22.6286 43.6253 23.5657 41.5681 23.5657C39.1681 23.5657 37.5453 22.4457 37.4996 20.1829C37.431 17.5086 39.7167 16.7086 42.5053 16.5943C44.4938 16.5257 45.5453 16.48 45.5453 15.7714C45.5453 14.56 44.7453 13.6686 42.8481 13.6686C41.2253 13.6686 40.1281 14.4229 40.0596 16.0686H37.6595Z" fill="#C6C6C6"/>
<path d="M24.2465 15.6798C24.2465 12.7084 26.8523 11.5198 29.3894 11.5198C30.9208 11.5198 32.338 11.9998 33.2523 12.7541L33.4351 12.6398L33.2294 12.4341C32.5208 11.7255 32.6351 10.6512 33.5037 10.0569C33.7323 9.89694 33.938 9.78265 34.2123 9.64551L35.6523 11.7941C34.9665 11.9312 34.6237 12.0684 34.3037 12.2969C33.8465 12.6169 33.6408 13.1427 33.778 13.4855C34.1437 14.0569 34.3723 14.8112 34.3723 15.7255C34.3723 18.6512 31.7894 19.8855 29.3208 19.9541C28.9323 19.9769 28.338 19.9541 27.9494 19.8855C27.6523 19.9312 27.2865 20.0912 27.2865 20.4798C27.2865 21.0741 27.8808 21.2798 29.7551 21.2798C32.9323 21.2798 35.378 21.9198 35.378 24.5026C35.378 27.1769 32.7494 27.9998 29.6865 27.9998C26.418 27.9998 23.9951 27.1769 23.9951 24.8684C23.9951 23.0169 25.618 22.2855 27.4237 22.1941L27.4465 21.9198H27.0351C25.7551 21.8512 25.0008 21.5541 24.978 20.5941C24.9551 19.8398 25.6637 19.4512 26.6237 19.3369C26.8751 19.3141 27.218 19.2912 27.4465 19.2912V19.0855C27.1494 19.0398 26.9894 19.0169 26.6008 18.9255C25.0465 18.5141 24.2465 17.0741 24.2465 15.6798ZM26.4408 24.3884C26.4408 25.3941 27.4694 25.8284 29.6865 25.8284C31.9951 25.8284 32.9323 25.3941 32.9323 24.3655C32.9323 23.3369 31.9494 22.9484 29.7323 22.9484C27.4465 22.9484 26.4408 23.3141 26.4408 24.3884ZM26.6923 15.7712C26.6923 17.1655 27.7894 17.8969 29.3208 17.8969C30.9437 17.8969 31.9265 17.1655 31.9265 15.7484C31.9265 14.3084 30.8751 13.5769 29.3665 13.5769C27.7665 13.5769 26.6923 14.2855 26.6923 15.7712Z" fill="#C6C6C6"/>
<path d="M21.9367 19.2458C21.7081 21.8973 19.2624 23.6573 16.5653 23.5658C13.3882 23.4973 10.7596 21.5773 10.7139 17.5773C10.7139 14.1487 12.7939 11.543 16.4967 11.543C20.0624 11.543 21.9596 13.623 22.1424 16.8001C22.1881 17.303 22.1653 17.7601 22.0967 18.3087H13.1596C13.4567 20.4344 14.851 21.4401 16.4967 21.463C18.051 21.5544 19.2853 20.6858 19.5596 19.2458H21.9367ZM13.1824 16.5487H19.7653V16.4573C19.7653 14.7201 18.3939 13.6458 16.451 13.6458C14.5539 13.6458 13.4339 14.743 13.1824 16.5487Z" fill="#C6C6C6"/>
<path d="M0 23.3372V8.25146H2.46857V20.9829H9.80571V23.3372H0Z" fill="#C6C6C6"/>
<rect width="8" height="8" transform="matrix(-1 0 0 1 153 8)" fill="#923EFA"/>
</svg>
