<svg width="2590" height="392" viewBox="0 0 2590 392" fill="none" xmlns="http://www.w3.org/2000/svg">
<path d="M45.0006 37.3022C56.2524 27.9086 69.0728 24.0622 83.177 24.0571C141.836 24.0359 200.496 24.1538 259.155 24.0002C286.756 23.928 309.975 41.5058 316.27 67.2257C317.6 72.6623 318.193 78.411 318.207 84.018C318.342 142.177 318.341 200.337 318.265 258.497C318.233 283.237 307.355 301.563 285.145 312.816C277.284 316.8 268.721 318.328 260.013 318.342C200.854 318.437 141.693 318.541 82.5348 318.328C54.3362 318.227 32.3392 300.767 25.5516 273.576C24.357 268.79 24.0815 263.674 24.0732 258.709C23.9757 200.383 23.9965 142.057 24.018 83.7308C24.0248 65.26 30.4187 49.6094 45.0006 37.3022ZM267.079 71.869C245.431 52.701 220.91 47.5384 193.82 57.8574C170.822 66.6178 148.106 76.1273 125.325 85.4497C107.231 92.854 93.955 105.456 86.3995 123.539C76.7181 146.71 67.4372 170.049 58.0201 193.331C53.4315 204.675 51.6072 216.542 53.3893 228.594C60.0985 273.966 105.466 300.738 148.374 284.452C171.848 275.543 195.041 265.876 218.222 256.218C235.743 248.918 248.568 236.449 255.874 218.851C265.568 195.504 275.33 172.169 284.224 148.513C295.016 119.811 289.046 94.2753 267.079 71.869Z" fill="#1C43F4"/>
<path d="M1884.82 299.87C1897.41 299.783 1909.56 299.783 1921.99 299.783C1922.38 302.779 1922.55 305.598 1923.14 308.327C1925.08 317.351 1930.21 324.343 1938.49 328.105C1955.17 335.681 1972.12 335.706 1988.48 327.086C1997.78 322.187 2002.6 314.037 2001.9 303.315C2001.17 292.213 1994.69 284.954 1984.54 281.881C1977.18 279.651 1969.25 278.836 1961.51 278.368C1947.61 277.527 1934 275.731 1921.37 269.511C1894.45 256.257 1882.59 233.678 1882.14 204.547C1881.55 166.143 1909.1 134.912 1947.14 130.323C1968.49 127.747 1978.28 129.073 1999.57 137.527C2005.47 130.298 2011.45 122.973 2017.69 115.32C2027.19 122.427 2036.61 129.473 2046.47 136.854C2039.75 144.828 2033.17 152.643 2026.67 160.367C2052.99 200.831 2047.61 231.008 2010.11 258.41C2016.61 263.33 2024.2 267.588 2029.86 273.647C2047.21 292.196 2046.6 323.352 2029.29 342.972C2017.62 356.194 2002.44 362.892 1985.48 365.788C1961.87 369.82 1938.59 368.981 1916.75 357.958C1895.86 347.417 1884.61 330.195 1883.47 306.673C1883.37 304.455 1884.06 302.197 1884.82 299.87ZM2001.72 215.326C2004.18 205.322 2003.87 195.419 1999.57 186.015C1992.78 171.15 1978.27 163.225 1960.92 164.059C1949.51 164.609 1939.27 167.8 1931.51 176.552C1921.18 188.197 1918.67 207.781 1925.49 221.526C1933.49 237.643 1947.34 243.748 1964.41 243.216C1983.39 242.624 1997.13 232.192 2001.72 215.326Z" fill="white"/>
<path d="M2080.02 255.438C2057.72 222.807 2061.74 173.85 2089.01 147.929C2105.15 132.582 2124.93 127.755 2146.65 129.949C2162.72 131.571 2176.82 137.651 2188.84 150.187C2189.92 143.968 2190.89 138.423 2191.87 132.781C2203.32 132.781 2214.42 132.781 2225.85 132.781C2225.85 182.011 2225.85 231.094 2225.85 280.949C2218.57 280.949 2211.16 280.949 2203.75 280.949C2191.55 280.949 2191.56 280.948 2189.98 269.049C2189.74 267.284 2189.31 265.546 2188.93 263.646C2160.19 294.26 2103.69 290.19 2080.02 255.438ZM2182.49 226.219C2186.2 218.139 2187.07 209.637 2186.08 200.912C2184.34 185.545 2177.01 173.677 2162.57 167.691C2148.14 161.709 2133.7 162.758 2121.04 172.574C2108.03 182.659 2104.38 196.714 2105.87 212.572C2107.58 230.856 2120.21 245.401 2137.25 248.485C2156.91 252.045 2173.79 243.928 2182.49 226.219Z" fill="white"/>
<path d="M1838.23 243.213C1843.68 248.826 1848.89 254.181 1854.2 259.643C1835.03 277.775 1812.33 285.015 1786.84 284.656C1767.38 284.382 1749.19 279.855 1733.74 267.453C1714.79 252.249 1707.27 231.553 1707.23 208.022C1707.19 178.526 1717.92 154.425 1744.65 139.396C1772.31 123.844 1814.54 127.181 1838.51 146.848C1852.94 158.679 1860.04 174.605 1861.91 192.761C1862.82 201.617 1862.07 210.644 1862.07 220.023C1823.97 220.023 1786.2 220.023 1747.88 220.023C1750.02 233.074 1757 241.921 1768.57 246.392C1789.98 254.669 1810.32 251.578 1829.32 238.898C1830.13 238.357 1830.88 237.734 1832.61 236.44C1834.41 238.624 1836.2 240.79 1838.23 243.213ZM1768.57 193.524C1787.03 193.524 1805.49 193.524 1823.96 193.524C1823.62 174.908 1807.6 162.065 1785.68 162.427C1764.97 162.768 1748.81 176.409 1749.11 193.524C1755.26 193.524 1761.41 193.524 1768.57 193.524Z" fill="white"/>
<path d="M2546.07 132.602C2552.88 132.602 2559.19 132.602 2565.97 132.602C2565.22 134.588 2564.67 136.285 2563.96 137.917C2534.37 206.363 2504.75 274.791 2475.26 343.281C2473.92 346.397 2472.45 347.447 2469.08 347.388C2456.49 347.169 2443.89 347.301 2430.58 347.301C2435.09 336.795 2439.34 326.923 2443.59 317.051C2448.51 305.61 2453.57 294.223 2458.24 282.68C2459.1 280.551 2459.16 277.497 2458.33 275.369C2440.21 229.318 2421.9 183.338 2403.64 137.344C2403.1 135.987 2402.59 134.619 2401.92 132.874C2416.26 132.874 2430.16 132.874 2445.07 132.874C2457.35 166.48 2469.79 200.506 2482.34 234.856C2489.99 215.215 2497.42 195.909 2505.03 176.673C2510.29 163.394 2515.89 150.251 2521.11 136.959C2522.37 133.729 2523.89 132.279 2527.58 132.504C2533.55 132.868 2539.57 132.602 2546.07 132.602Z" fill="white"/>
<path d="M1543.97 132.395C1543.97 111.75 1543.97 91.6047 1543.97 71.1599C1557.65 71.1599 1571.07 71.1599 1585.07 71.1599C1585.07 128.146 1585.07 185.152 1585.07 242.625C1621.55 242.625 1657.44 242.625 1693.67 242.625C1693.67 255.495 1693.67 267.901 1693.67 280.632C1644.04 280.632 1594.31 280.632 1543.97 280.632C1543.97 231.367 1543.97 182.131 1543.97 132.395Z" fill="white"/>
<path d="M1043.09 159.542C1044.73 150.428 1046.31 141.768 1047.94 132.88C1053.23 132.88 1058.28 132.88 1063.74 132.88C1061.09 148.187 1058.51 163.238 1055.86 178.275C1049.62 213.657 1043.41 249.045 1037.05 284.406C1033.46 304.369 1025.79 322.292 1010.06 335.944C996.338 347.859 979.949 353.384 962.238 355.157C936.329 357.75 911.837 353.472 889.796 338.721C889.253 338.357 888.745 337.943 887.784 337.229C890.79 332.652 893.749 328.147 896.17 324.462C906.278 328.671 915.713 333.686 925.76 336.549C944.14 341.786 962.792 341.158 980.661 334.021C1005.22 324.213 1016.81 304.432 1020.97 279.359C1022.28 271.497 1023.71 263.656 1025.08 255.839C1019.17 260.693 1013.81 266.254 1007.43 270.125C982.767 285.091 956.667 288.963 929.915 276.444C910.087 267.164 900.383 249.958 898.46 228.742C895.44 195.422 912.572 151.565 952.816 136.207C977.84 126.656 1002.81 126.589 1025.7 142.414C1031.48 146.415 1035.4 153.103 1040.26 158.478C1040.93 159.217 1042.1 159.502 1043.09 159.542ZM925.102 182.038C919.671 191.75 916.685 202.223 915.32 213.218C912.212 238.234 924.48 258.693 946.783 264.973C961.862 269.219 976.807 268.157 991.2 261.948C1021.68 248.8 1036.45 217.588 1034.51 188.522C1032.83 163.316 1016.38 147.81 991.211 146.26C962.077 144.464 940.548 156.898 925.102 182.038Z" fill="white"/>
<path d="M2392.13 262.393C2358.15 294.753 2303.67 287.43 2279.23 264.723C2266.08 252.505 2258.85 237.414 2256.62 219.826C2254.27 201.238 2256.2 183.25 2265.6 166.662C2277.12 146.316 2295.18 135.448 2317.71 130.952C2344.98 125.51 2372.43 133.246 2392.31 152.633C2384.8 160.739 2377.28 168.863 2369.48 177.294C2357.79 166.673 2344.14 162.36 2328.58 165.057C2318.19 166.86 2309.73 171.958 2303.28 180.516C2291.33 196.388 2293.3 224.685 2307.37 238.094C2322.77 252.769 2351.63 254.282 2371.17 235.09C2377.02 241.355 2382.87 247.618 2388.71 253.888C2390.19 255.472 2391.88 256.932 2392.99 258.742C2393.45 259.482 2392.64 261.001 2392.13 262.393Z" fill="white"/>
<path d="M1228.53 235.024C1225.96 249.535 1223.56 263.641 1220.95 277.709C1220.73 278.918 1219.22 280.735 1218.2 280.806C1213.45 281.135 1208.66 280.952 1203.38 280.952C1205.82 266.758 1208.18 253.186 1210.49 239.605C1213.24 223.368 1216.08 207.142 1218.63 190.872C1219.96 182.395 1219.7 173.827 1216.44 165.792C1211.77 154.277 1202.13 149.05 1190.48 147.426C1159.58 143.12 1132.46 157.942 1120.56 186.823C1116.45 196.806 1115.21 208.042 1113.2 218.807C1109.54 238.432 1106.29 258.133 1102.85 277.799C1102.68 278.76 1102.29 279.683 1101.97 280.732C1096.39 280.732 1090.97 280.732 1085.15 280.732C1097.46 210.69 1109.72 140.938 1122 71.0532C1127.8 71.0532 1133.24 71.0532 1139.38 71.0532C1134.38 99.2118 1129.43 127.118 1124.43 155.32C1130.48 150.754 1135.81 145.994 1141.82 142.334C1160.6 130.887 1180.94 127.629 1202.28 132.994C1226.77 139.148 1239.78 159.543 1236.49 186.835C1234.77 201.027 1231.91 215.079 1229.56 229.194C1229.26 231 1228.95 232.804 1228.53 235.024Z" fill="white"/>
<path d="M643.687 232.126C640.847 247.937 638.119 263.331 635.378 278.723C635.263 279.366 635.028 279.987 634.807 280.766C629.298 280.766 623.86 280.766 617.977 280.766C620.203 267.921 622.445 255.347 624.551 242.749C627.65 224.214 631.141 205.725 633.523 187.096C635.088 174.858 633.032 162.929 622.596 154.508C613.968 147.546 603.398 146.219 592.846 146.666C570.42 147.615 552.8 157.638 540.29 176.366C533.261 186.889 531.16 199.022 529.067 211.173C525.086 234.273 520.976 257.351 516.876 280.681C511.295 280.681 505.875 280.681 499.763 280.681C508.459 231.286 517.122 182.084 525.801 132.789C531.184 132.789 536.113 132.789 541.599 132.789C540.261 141.018 538.967 148.981 537.643 157.125C543.527 152.357 548.765 147.254 554.794 143.383C574.092 130.992 595.148 127.389 617.393 133.164C640.323 139.116 652.948 157.007 651.147 182.4C650.093 197.275 646.86 211.995 644.602 226.784C644.351 228.428 644.065 230.067 643.687 232.126Z" fill="white"/>
<path d="M713.438 281.024C697.456 277.488 684.505 269.785 674.191 257.711C677.635 253.954 681.097 250.176 684.821 246.113C692.311 254.832 701.244 261.168 712.048 264.17C731.808 269.659 751.504 270.243 770.416 260.853C778.207 256.986 783.735 250.867 784.945 241.831C786.228 232.251 783.141 224.92 774.114 221.614C762.344 217.304 750.013 214.407 737.778 211.514C727.068 208.983 716.528 206.402 706.998 200.526C689.63 189.819 688.619 167.754 697.995 153.583C706.906 140.115 720.651 134.519 735.807 131.944C760.201 127.801 783.604 129.685 804.465 144.743C807.021 146.588 809.387 148.694 812.129 150.913C808.668 154.786 805.377 158.469 801.865 162.4C791.788 153.342 780.401 147.434 767.18 145.916C752.136 144.188 737.211 144.562 723.287 151.619C717.674 154.464 713.23 158.575 710.83 164.664C706.852 174.756 709.754 185.038 719.783 188.955C731.3 193.452 743.66 195.738 755.516 199.428C765.924 202.668 776.628 205.529 786.339 210.31C806.207 220.091 805.348 245.311 796.36 258.842C787.573 272.071 774.305 278.099 759.453 281.27C744.275 284.51 729.035 284.293 713.438 281.024Z" fill="white"/>
<path d="M1389.42 252.083C1403.82 264.7 1420.81 268.187 1438.91 267.878C1449.46 267.697 1460.06 266.539 1469.14 260.776C1473.87 257.772 1478.61 253.609 1481.31 248.821C1487.71 237.471 1484.12 225.904 1472.07 221.199C1460.72 216.769 1448.56 214.289 1436.63 211.517C1425.91 209.025 1415.36 206.439 1405.85 200.538C1387.79 189.334 1387.91 166.973 1396.81 153.585C1405.75 140.133 1419.47 134.52 1434.63 131.946C1459.02 127.806 1482.43 129.682 1503.29 144.745C1505.84 146.588 1508.2 148.702 1510.93 150.924C1507.45 154.841 1504.16 158.54 1500.76 162.357C1479.52 143.674 1455.18 141.65 1429.42 148.638C1419.25 151.397 1410.89 157.143 1408.55 168.531C1406.68 177.569 1409.66 185.547 1418.2 188.769C1429.93 193.196 1442.39 195.687 1454.39 199.44C1464.8 202.691 1475.53 205.516 1485.2 210.345C1505.03 220.237 1504.1 244.821 1495.45 258.494C1487.98 270.298 1476.53 276.802 1463.54 280.013C1440.03 285.829 1416.54 285.701 1394.44 274.43C1386.59 270.424 1379.8 264.341 1372.02 258.854C1376.41 254.033 1379.84 250.269 1383.99 245.72C1385.8 247.872 1387.47 249.862 1389.42 252.083Z" fill="white"/>
<path d="M1304.19 230.739C1303.44 237.774 1302.22 244.374 1302.17 250.983C1302.1 261.489 1307.67 266.699 1318.09 267.47C1328.9 268.27 1338.81 265.331 1348.81 260.599C1349.95 265.579 1351.04 270.352 1352.21 275.468C1335.84 283.006 1319.19 286.65 1301.83 280.821C1290.43 276.995 1284.94 267.622 1285.08 256.124C1285.22 244.725 1286.69 233.263 1288.52 221.98C1292.33 198.348 1296.77 174.816 1300.93 151.24C1301.07 150.43 1301.05 149.59 1301.13 148.253C1291.14 148.253 1281.25 148.253 1270.63 148.253C1271.54 142.819 1272.34 137.986 1273.21 132.757C1283.42 132.757 1293.5 132.757 1304.07 132.757C1305.76 123.333 1307.52 114.248 1309 105.119C1311.58 89.2664 1311.51 89.2538 1327.67 88.4474C1327.98 88.4319 1328.3 88.5514 1329.26 88.7232C1326.76 103.165 1324.25 117.612 1321.66 132.58C1338.04 132.58 1353.96 132.58 1370.43 132.58C1369.5 137.975 1368.67 142.828 1367.77 148.065C1351.47 148.065 1335.37 148.065 1318.92 148.065C1313.99 175.713 1309.12 203.011 1304.19 230.739Z" fill="white"/>
<path d="M436.259 245.46C442.248 211.474 448.176 177.915 454.079 144.352C458.196 120.939 462.275 97.5191 466.389 74.1055C466.559 73.1371 466.903 72.1993 467.214 71.0728C473.082 71.0728 478.834 71.0728 485 71.0728C472.681 141.165 460.406 211.008 448.14 280.802C441.965 280.802 436.326 280.802 430.185 280.802C432.212 269.008 434.2 257.447 436.259 245.46Z" fill="white"/>
<path d="M868.924 132.594C870.87 132.594 872.341 132.594 874.434 132.594C872.819 142.048 871.333 151.012 869.753 159.959C862.902 198.767 855.963 237.559 849.258 276.392C848.653 279.897 847.693 281.34 844.007 281.036C840.055 280.71 836.056 280.962 831.278 280.962C840.007 231.363 848.658 182.199 857.388 132.594C861.184 132.594 864.817 132.594 868.924 132.594Z" fill="white"/>
<path d="M875.394 100.178C867.38 100.747 863.265 98.8721 861.189 93.9934C858.916 88.6525 860.744 82.0589 865.67 77.8312C870.474 73.7083 878.112 72.7227 882.89 75.6089C887.248 78.2411 888.865 83.1307 887.271 88.6714C885.56 94.6163 881.562 98.2261 875.394 100.178Z" fill="white"/>
</svg>
